<svg id="Layer_1" data-name="Layer 1" xmlns="http://www.w3.org/2000/svg" viewBox="0 0 20 20"><defs><style>.cls-1{fill:#ece133;}.cls-2{fill:#de8f05;}.cls-3{fill:#d55e00;}.cls-4{fill:#ca9161;}.cls-5{fill:#0173b2;}.cls-6{fill:#cc78bc;}.cls-7{fill:#949494;}.cls-8{fill:#029e73;}</style></defs><title>color_wheel</title><path class="cls-1" d="M2.82,3A10,10,0,0,1,10,0V10"/><path class="cls-2" d="M20,10H10l7.18-7A9.94,9.94,0,0,1,20,10Z"/><path class="cls-3" d="M17,17.18A9.94,9.94,0,0,1,10,20V10Z"/><path class="cls-4" d="M10,10,3,17.18A10,10,0,0,1,0,10H10Z"/><path class="cls-5" d="M17.18,3,10,10h0V0A10,10,0,0,1,17.18,3Z"/><path class="cls-6" d="M10,10V20a9.94,9.94,0,0,1-7-2.82Z"/><path class="cls-7" d="M10,10H0A9.94,9.94,0,0,1,2.82,3Z"/><path class="cls-8" d="M20,10a10,10,0,0,1-3,7.18L10,10H20Z"/></svg>